/* XPM */
static char *bitcoin64[] = {
/* columns rows colors chars-per-pixel */
"64 92 225 2 ",
"   c #6C0909",
".  c #740205",
"X  c #75040A",
"o  c #7A020C",
"O  c #740A0C",
"+  c #7B0608",
"@  c #750716",
"#  c #7D0615",
"$  c #7D0817",
"%  c #7E0919",
"&  c #7B0A14",
"*  c #7B1B1C",
"=  c #781416",
"-  c #6E0817",
";  c #7C1D21",
":  c #7E2529",
">  c #8A0204",
",  c #83050B",
"<  c #8B040A",
"1  c #8E0A0B",
"2  c #840506",
"3  c #930005",
"4  c #93000E",
"5  c #90090C",
"6  c #850516",
"7  c #8D0316",
"8  c #830817",
"9  c #8D0A14",
"0  c #810A19",
"q  c #890D1C",
"w  c #860319",
"e  c #960014",
"r  c #990014",
"t  c #920915",
"y  c #9B0C13",
"u  c #930618",
"i  c #920A1C",
"p  c #9E0A1B",
"a  c #891A1C",
"s  c #9C1213",
"d  c #9D1B12",
"f  c #951919",
"g  c #AC080C",
"h  c #A41C0F",
"j  c #A10B13",
"k  c #A21412",
"l  c #A51B11",
"z  c #A81D10",
"x  c #B90509",
"c  c #9C2112",
"v  c #9F2C10",
"b  c #9E2C0E",
"n  c #A9260E",
"m  c #B12C0E",
"M  c #B4290D",
"N  c #A8350E",
"B  c #B4340E",
"V  c #BD3D0B",
"C  c #B8380C",
"Z  c #A42311",
"A  c #AA2410",
"S  c #A52B10",
"D  c #861625",
"F  c #8D1625",
"G  c #8C1827",
"H  c #8D1928",
"J  c #861928",
"K  c #921424",
"L  c #9B1524",
"P  c #901928",
"I  c #901827",
"U  c #AC1423",
"Y  c #B31625",
"T  c #BD1625",
"R  c #B91928",
"E  c #82242A",
"W  c #872628",
"Q  c #892B36",
"!  c #873439",
"~  c #962831",
"^  c #A22C35",
"/  c #C80308",
"(  c #D00919",
")  c #C03D0B",
"_  c #C21827",
"`  c #C21928",
"'  c #C31726",
"]  c #CF2931",
"[  c #A9430D",
"{  c #BB430A",
"}  c #B85709",
"|  c #AE540B",
" . c #BA6408",
".. c #B86907",
"X. c #BC7406",
"o. c #C3440A",
"O. c #C34C0A",
"+. c #C74907",
"@. c #CC5509",
"#. c #C95807",
"$. c #D65604",
"%. c #D45C01",
"&. c #DC5B00",
"*. c #D85704",
"=. c #D14C07",
"-. c #E15C00",
";. c #CA6804",
":. c #D46302",
">. c #D36B00",
",. c #DB6B03",
"<. c #D96504",
"1. c #C67605",
"2. c #D47200",
"3. c #DC7302",
"4. c #D57C00",
"5. c #D87E00",
"6. c #E46500",
"7. c #E56B01",
"8. c #EA6C00",
"9. c #E86600",
"0. c #E37502",
"q. c #EC7300",
"w. c #E67C03",
"e. c #EA7B01",
"r. c #F17A00",
"t. c #893D44",
"y. c #AB3943",
"u. c #92464C",
"i. c #974D55",
"p. c #8D5056",
"a. c #97565A",
"s. c #8D464C",
"d. c #A84E54",
"f. c #A3535B",
"g. c #A74648",
"h. c #9C5C63",
"j. c #AD5F66",
"k. c #9C6769",
"l. c #9E6D70",
"z. c #9D7275",
"x. c #A7656B",
"c. c #B5676C",
"v. c #A56D72",
"b. c #B76C72",
"n. c #A57679",
"m. c #BB747A",
"M. c #DC5057",
"N. c #BF8902",
"B. c #C38D00",
"V. c #CD8D00",
"C. c #C88402",
"Z. c #D38300",
"A. c #D28B00",
"S. c #D98800",
"D. c #C49401",
"F. c #CC9200",
"G. c #CC9B01",
"H. c #C69900",
"J. c #D59301",
"K. c #D69B00",
"L. c #EC8401",
"P. c #EE8900",
"I. c #F18601",
"U. c #F38C00",
"Y. c #F88F00",
"T. c #F59300",
"R. c #FB9500",
"E. c #F69900",
"W. c #FD9B00",
"Q. c #CBA501",
"!. c #CAA600",
"~. c #D3A401",
"^. c #D2A800",
"/. c #FDA200",
"(. c #A9807F",
"). c #A87E80",
"_. c #BC7F85",
"`. c #C27E81",
"'. c #AC8385",
"]. c #AC8689",
"[. c #B48488",
"{. c #B5979A",
"}. c #AE9090",
"|. c #B99FA3",
" X c #BEAAAB",
".X c #BBA3A6",
"XX c #CD8C91",
"oX c #CE8C91",
"OX c #E6989C",
"+X c #D09FA3",
"@X c #CBA7AA",
"#X c #DCADAE",
"$X c #D4A6A8",
"%X c #D8AEB1",
"&X c #C3B6B7",
"*X c #D9B6B8",
"=X c #C4ADB0",
"-X c #E2BEBE",
";X c #C6BFC0",
":X c #CBC9C9",
">X c #D4D5D5",
",X c #DBDBDC",
"<X c #D6D9DA",
"1X c #D2D0D0",
"2X c #EBDADB",
"3X c #EFD2D6",
"4X c #F2DFE1",
"5X c #DDE3E3",
"6X c #DDECEB",
"7X c #D7E4E3",
"8X c #DFF0EE",
"9X c #DEF3F2",
"0X c #E4EDED",
"qX c #E9E8E8",
"wX c #F4ECEC",
"eX c #F1E2E4",
"rX c #E3EFF0",
"tX c #F7EFF0",
"yX c #E4F2F2",
"uX c #E7F6F6",
"iX c #F9F3F4",
"pX c #FCFAFA",
"aX c #F4F9FA",
"sX c #E3F0EF",
"dX c None",
/* pixels */
"dXdXdXdXdXdXdXdXdXdXdXdXdXdXdXdXdXdXdXdXdXdXdXdXdXdX/././.W.W.W./.W.W.W.W.W.dXdXdXdXdXdXdXdXdXdXdXdXdXdXdXdXdXdXdXdXdXdXdXdXdXdX",
"dXdXdXdXdXdXdXdXdXdXdXdXdXdXdXdXdXdXdXdXdXdXdXdXR.R.R.W.W.W./.W./.W.W.R.R.R.R.R.dXdXdXdXdXdXdXdXdXdXdXdXdXdXdXdXdXdXdXdXdXdXdXdX",
"dXdXdXdXdXdXdXdXdXdXdXdXdXdXdXdXdXdXdXdXdXdXR.R.W.W.W.R.W.W./.W.W.W.W.W.R.W.W.W.E.R.dXdXdXdXdXdXdXdXdXdXdXdXdXdXdXdXdXdXdXdXdXdX",
"dXdXdXdXdXdXdXdXdXdXdXdXdXdXdXdXdXdXdXdXR.W.W.W.W./././.W.R.T.T.T.U.T.W./././.E.T.T.U.I.dXdXdXdXdXdXdXdXdXdXdXdXdXdXdXdXdXdXdXdX",
"dXdXdXdXdXdXdXdXdXdXdXdXdXdXdXdXdXdXT.T.T.E././.R.L.3.<.#.O.o.{ V V O.@.<.0.L.T.E.W.R.U.U.P.dXdXdXdXdXdXdXdXdXdXdXdXdXdXdXdXdXdX",
"dXdXdXdXdXdXdXdXdXdXdXdXdXdXdXdXdXU.Y.R.R.E.U.w.:.O.B Z d s r u t t y s Z B O.*.w.P.T.T.U.L.L.dXdXdXdXdXdXdXdXdXdXdXdXdXdXdXdXdX",
"dXdXdXdXdXdXdXdXdXdXdXdXdXdXdXdXU.U.U.R.E.e.@.B s 7 w w w 7 e w e 7 7 w 7 7 q k B @.0.I.I.e.q.e.dXdXdXdXdXdXdXdXdXdXdXdXdXdXdXdX",
"dXdXdXdXdXdXdXdXdXdXdXdXdXdXP.P.P.U.R.w.@.m s t 7 u u e u u e e e e e e 7 u 7 u t f M +.7.r.8.9.-.-.dXdXdXdXdXdXdXdXdXdXdXdXdXdX",
"dXdXdXdXdXdXdXdXdXdXdXdXdXe.e.e.I.r.,.{ d t w 7 e e r e r e e r e e e e r e e e 7 7 7 k C $.6.,.&.$.:.dXdXdXdXdXdXdXdXdXdXdXdXdX",
"dXdXdXdXdXdXdXdXdXdXdXdXdX8.8.q.q.*.M e w 7 e r e e e e e e e e e e e e e e e e e e 7 7 e Z O.2.>.>.>.dXdXdXdXdXdXdXdXdXdXdXdXdX",
"dXdXdXdXdXdXdXdXdXdXdXdX&.&.6.7.o.k 7 7 e e e e e e e r e e e e e e e e e r e e e e e e 7 7 d #.S.J.4.Z.dXdXdXdXdXdXdXdXdXdXdXdX",
"dXdXdXdXdXdXdXdXdXdXdX%.%.,.>.o.l 7 7 e e e e e e e e e e e e e e e e e e e e e e e e e e 7 7 c  .J.K.Z.V.dXdXdXdXdXdXdXdXdXdXdX",
"dXdXdXdXdXdXdXdXdXdX3.2.2.Z.#.f 7 7 r e e e e e e e e e e e e e e r e e e e e e e e e e e e e 7 c X.K.F.V.F.dXdXdXdXdXdXdXdXdXdX",
"dXdXdXdXdXdXdXdXdXZ.Z.A.K.;.d 7 e e e e r e e e e e e e e e r e e e e e e e e e e e e e e e e e 7 d ..!.D.D.F.dXdXdXdXdXdXdXdXdX",
"dXdXdXdXdXdXdXdXdXA.V.~.C.S e e r r r r r r r r r r r r r r e e e e e r e e e r r r 4 r r r r r e 7 v C.!.D.V.dXdXdXdXdXdXdXdXdX",
"dXdXdXdXdXdXdXdXF.F.G.F.[ 7 e e e r e r r e e r e r r e e r e e e e e e r e e r e e r r r 4 t r e 7 7 [ H.G.F.S.dXdXdXdXdXdXdXdX",
"dXdXdXdXdXdXdXZ.V.H.!.| q 7 u 7 7 7 7 7 7 7 t 7 7 7 t 7 e 7 e e e e r e e e u u u u i i i u i i i u u 9 | !.G.A.>.dXdXdXdXdXdXdX",
"dXdXdXdXdXdXdXA.F.!.X.f w $ 0 % 0 0 % % 0 8 0 8 % % 0 0 0 % 6 e r e e e e e F F F F K F F F K F F K G 7 c X.^.Z.>.dXdXdXdXdXdXdX",
"dXdXdXdXdXdX>.Z.G.D.N 7 w & % % % % % % % % % % % % % % % @ % e r e e e e u H H G H H F F F H H G G H u 7 N F.J.:.&.dXdXdXdXdXdX",
"dXdXdXdXdXdX>.A.Q. .9 e e 6 @ % % % % % % % % % % % % % % % % 6 r e e r e F H F F F F F F F F F F G G u e u  .K.;.&.dXdXdXdXdXdX",
"dXdXdXdXdX&.>.J.B.d u e r 7 % % % 0 % % % % & % % % % % % % % % e r e 4 i F F F F F F F F F F F F G F u e u d Z.2.&.q.dXdXdXdXdX",
"dXdXdXdXdX-.>.J.} u e e r u % % 0 % % % % % % % % % 0 % % % % % 7 r r r F H F F F F F F F F F F F F F u e e t } 5.&.q.dXdXdXdXdX",
"dXdXdXdXdX&.>.S.d 7 r e r r 7 & % % % % % % % % % % % % % % 0 % % e r t F F F F F F F F F F F F F F F u e e 7 d 2.,.8.dXdXdXdXdX",
"dXdXdXdXq.-.3.} 9 e e e e r e $ % % % % 0 0 % % % % % % $ % % % % 9 r i H F F F F F F F F F F P F G F u e e e 7 { 8.8.P.dXdXdXdX",
"dXdXdXdXq.6.>.h 7 e e e e e r 7 % % % % % 0 % % % % % 0 0 % % % % # i I G F F F F F F F F F F F F F F u e e e 7 h <.q.P.dXdXdXdX",
"dXdXdXI.0.8.o.t e e e e e e r e $ % % % % % % % % % % % $ % 0 $ & $ q P F F F F F F F F F F F F F F F u e e e e t +.q.P.U.dXdXdX",
"dXdXdXP.0.q.n 7 e e e e e e e r w % % % % % % % % % $ 0 $ 0 % % $ $ % G I F F F F F P F F F F F F F F u r e e e 7 M q.P.U.dXdXdX",
"dXdXdXI.e.6.y 7 e e e e e r e r e $ % % % % % % % 0 $ % $ 0 % % $ % % D I F F F F F F F F F F F F F F u e e e e 7 y 7.I.I.dXdXdX",
"dXdXU.I.I.=.7 e e e r e e e e r e 6 % % % % % % % % % 0 $ 0 0 % % % $ 0 I F F F F F F F F F F F F F H i r e e e e 7 =.T.U.T.dXdX",
"dXdXU.U.I.M 7 e e e e e e e e e r 7 @ % % % % % % % $ 0 % % % % % % % $ D I F F F F F F F F F F F H K t e e e e e 7 B I.U.T.dXdX",
"dXdXU.T.e.k e e e e e e e r e e r r 6 % % % % % % % 0 % % % % % % % % # q I K G F F F F F F F F F F u t e e e e e 7 k w.T.T.dXdX",
"dXdXT.E.<.u e e e e e e e e e e e r e % % % % % $ 0 % % % % % 0 % % % $ $ F G F F F F F F F F F F F u r e e e e e e u <.R.T.dXdX",
"dXT.T.W.O.7 e e r e e e e e e e e r e 6 % % 8 $ % % % % $ $ % % 0 % $ 0 # q G G F F F F F G F F G i r u e e e e e e 7 O.E.T.R.dX",
"dXT.T.E.B 7 e e e e e e e e r e e e r < $ $ $ 6 # 0 % % 0 0 % % % 0 $ 6 $ # F G F F F F F F F G F u r e e e r e e e 7 B R.E.W.dX",
"dXR.R.I.z 7 e e e e e e e e e e e r 3 > . . . . . . o % % 0 $ % # o . . . . w H D D D F F F G D , > 3 e e e e e e e 7 z I.E.R.dX",
"dXW.E.e.y 7 e e e e r e e e e e e e f P a * * * * * + & % % 8 8 # X * * * ; % I K F F G F F F q f L f e e r e e e e e y e.E.R.dX",
"dXW./.,.9 e e e e e r e e e e e e 5 c.oXXX'.n.'.[.n.Q . # 0 0 . . s.v.}.'.[.! t R Y L J I H 8 F XXXXm.t 4 e e e e e e 7 ,.W.R.dX",
"dXR./.@.7 e e e e e e e e e r e e 1 $X4XeX2X,X7X5X>X.X! X $ X = k. X>X5X,X,Xp.+ ' ' Y G F I + c.2XeX`.1 4 e e e e e e u @./.R.dX",
"W.R./.o.7 e e e e r e e e e e e r 5 -XiXeX4X,X>X>X7X9X(.O # O a.:XuX7X<X,X<Xp.X Y ' ' L D q D *XpXeXd.1 r e e e e e e w o.W.T.R.",
"W.R.W.B 7 e e e e e e e e r e e 4 5 #XiX$Xc.c.k.a.].8X1XE   Q :XuX>X].x.v.v.Q @ 9 ` T Y J + d.tXpXXX9 5 e e e r e e u 7 C W.T.R.",
"W.R.E.m w u r e e e e e e e e e e 5 #XiXc.W f * = E  X8Xa.O ].yX>Xk.: * * ; 0 $ @ U ` T i * *XpXqX^ > e e e e e e e e 7 m E.R.R.",
"W.R.T.A 7 r e e e e e r e e e e 5 5 #XiXf.+ 3 .     n.yXx.: :X0X(.= . . . . # 0 @ i T T g d.tXpX$X1 4 r e e r e e e e 7 A T.E.R.",
"W.W.U.z 7 e r e e e e e e e r e 4 5 #XiXx.2 3 > .   (.0Xa.u.yX:X: . & $ $ 8 0 $ % % Y R x oXpXtXg.2 r u e e e e e e e 7 l I.E.R.",
"W.W.L.k u e e e r e e e e e e e 4 5 #XiXv., t 5 O s.;X5X! v.rX).  # $ $ % 0 % % % @ i ` x M.iX*Xa 4 u r e e e e e e e 7 k P.W.R.",
"/.W.L.k 7 e e e e r e e e e e e 4 5 #XiX*Xm.[.[.[. X7X X; |.rXa.. 8 $ 0 $ $ % 0 % @ % U / ' OXx.> e e r e e e e e e e 7 k L./.R.",
"W.W.L.j e e e e e e e e e r e e 4 5 #XpXpXaXaXpXaXuX6Xk.& &X6Xi.. $ $ 0 % % % % % % - p ( / ] i 4 e e e e e e r e e e e y w./.R.",
"/.W.L.s 7 e e e e e r e e e e e e 1 #XpXpXtXaXaXqX7X8Xz.= &X8Xu.. 0 $ % 0 % % % % % - L ( / ] L 4 e e e e e e e e e e 7 j w./.R.",
"/.W.P.s e e e e e e e e e e e e 4 1 #XiX@Xb.m.m.x.].<X X: {.rXa.  0 0 % % % 8 % % & 0 R ( ( OXm.< r u e e r e e e e e u k L.W.R.",
"W.W.T.k e e e e e e e e r e e e e 5 #XiXx.2 4 < . :  XyXt.l.rX'.O & $ % % % % % % @ L T x M.iX1Xa 4 e e e e e e r e e 7 k L.W.R.",
"W./.T.z 7 e e e e e e e e e e e 4 5 #XiXx.2 3 + .   n.yXx.t.rX1X: . 8 8 # # % 0 $ % R T g oXiXtXd.> e e e e e e e e e 7 l I.R.R.",
"W.W.E.A 7 r e e e e e e e e e e 4 5 #XiXf.2 > . .   ).rXv.* :XyX'.*   . . . # % - L _ T p i.qXpX%X< 4 e e r e e e e r 7 A U.R.R.",
"W.W.W.m w r e e e e e e e e r e 4 5 #XiXb.W a * * ! &X6Xa.  '.0X>Xl.: D E W % @ % Y _ T i * %XaXwXg.> e e e e e e e e 7 m T.R.T.",
"/.R./.C q u e e e r e e e e r e e 1 #XiX%Xm.l.l.k.{.yX1X:   : &XyX7X}.v.).[.t.X K _ T U J + f.tXpX+X9 4 e e r e e e e 7 C E.E.Y.",
"/.R./.O.w u e e e e e e e e e e 4 1 *XpXwX2X<X<X>X5X9Xn.O # O u.;XuX6X,X5X<Xs.o Y _ T L D q a *XpX4Xg.< e e e e e e e w o.W.E.Y.",
"dXR./.@.7 e e e e e e e e e e e 4 5 %XiXaX0X7X8X8X>X{.Q . 0 o O a. X1X7X9X6Xp., T R Y G F F + j.qXiXXX1 4 e e e e e e 7 @.W.T.dX",
"dXR.W.,.t e e e e e e e r e e e 4 < XX3X*X|.@X=X.Xz.: . # 0 0 o O ! k.{.=X Xt.p R U L D F F 6 D %X3X%Xa 4 e e e e e u 7 <.E.T.dX",
"dXR.W.w.u u e e e e e e e e e r e e ^ y.~ Q Q Q Q * o # % % 0 $ X O = J ! Q J K K K F F F F F q ^ y.y.p 4 e r e e e e y 3.T.E.dX",
"dXR.W.U.l 7 e e e r e r e e e e e e 3 > . @ o o . . # % % % % 0 # o . o o o F I D F G F F F I D w > 4 u e e e e e e 7 k L.U.T.dX",
"dXR.R.E.B 7 e e e e e e e e e e e e 4 o o # o o # 6 0 % % % % % % 0 % # o # F F G F F F F F F H D < 3 e e r e e e e 7 m U.U.T.dX",
"dXR.R.E.@.7 e e e e e e r e e e e r e & $ $ # $ # # % 0 % % % # % % % $ # F I F F F F F F F F F F F e e e e e e e e 7 o.T.U.T.dX",
"dXdXW.W.,.t u e e e e e e e e e e r 6 % % % % % % % % % % 0 % % % % % $ 0 P F F F F F F F F F F G G i e e e e e e e u $.U.U.dXdX",
"dXdXW.R.L.l e e e e e e e e e e e e % % % % 0 0 % % $ % % % % 0 % % $ $ F F F F F F F F F F F F F G F e e e e e e e j 7.I.T.dXdX",
"dXdXW.T.R.C w e r e r e e e r e e w % % % 0 $ % $ $ 0 $ % % % % % % $ % P F F F F F F H F F F F F F F u e e e e e 7 M q.I.T.dXdX",
"dXdXR.U.W.#.7 e e e e e e e e r u $ % 0 $ % $ 0 % 0 $ 0 % % % 0 % % & F F F F F F F F F F F F F F F G u e e e e e 7 o.q.e.U.dXdX",
"dXdXdXT.U.w.s 7 e e e e e e e r 7 % % % 0 $ % $ % % 0 % % % % % % % % H P F F F F F F F F F F F F F F u r e e e 7 s :.8.e.dXdXdX",
"dXdXdXT.I.I.M 7 e e e e e e e e % % % % $ % % 0 % 8 % % $ 0 % 0 % # q H F F F F F F F F F F F F F F I u r e e e 7 B 3.6.L.dXdXdX",
"dXdXdXT.I.I.$.t e e e e e e r 7 % % % % 8 % % % % % % % % % % % % $ u F F F F F F F F F F F F F F F F i r e e e t #.,.9.e.dXdXdX",
"dXdXdXdXU.I.8.k 7 e e e e r u w % % % % % % % % % % 0 % $ 0 % % & 7 r K H F F F F F F F F F F F F H F t e e e 7 Z Z.:.6.dXdXdXdX",
"dXdXdXdXT.L.q.V 7 e e e e r 9 % % % % % % % % 8 % $ % % % % % % # e r t G G F F F F F F F F F P F G F u r e e 9 } S.:.6.dXdXdXdX",
"dXdXdXdXdXL.8.<.d 7 e e e e % @ % % % % % % % % % 0 $ % 0 0 % % 6 r r e F H F F H F F F H F F F F F G u 4 r 7 d F.S.%.dXdXdXdXdX",
"dXdXdXdXdXL.8.0.{ 7 e e r 7 % % % % % % % % % % $ 0 $ 0 $ % % & e r r 4 u H G F F F F F F F F F F F F u e e 7 } ^.Z.:.dXdXdXdXdX",
"dXdXdXdXdXL.6.,.2.d 7 r r 6 % % % % & % % % % % % % % % & % % 0 r r e r t F H F F F F F F F F H F G F u e e c D.G.4.:.dXdXdXdXdX",
"dXdXdXdXdXdX8.&.Z.#.9 e 7 % % % % % % % % % % % % % % % % % % 7 r e e e r t F H H F H F H F F F G G G t t t  .Q.A.Z.dXdXdXdXdXdX",
"dXdXdXdXdXdX8.&.4.J.N 7 w % % % % % $ % % % % % % % % % % % 8 e r e e e e u F F F F F F F F F F F F F u 7 b H.H.F.Z.dXdXdXdXdXdX",
"dXdXdXdXdXdXdX$.2.~.X.f w w 7 7 7 9 7 7 7 7 7 7 w 7 7 7 7 7 t r e e e e e 4 i i i i u i i i i i q i i 7 f ..Q.D.J.dXdXdXdXdXdXdX",
"dXdXdXdXdXdXdX$.>.J.^.| 9 e e e e e e e e t e e r r e e e e e e e r e e e r r e e t e e e t e e r e e u } G.F.D.V.dXdXdXdXdXdXdX",
"dXdXdXdXdXdXdXdX>.A.Q.H.N 7 7 e e e r e r r u e r r r r e r e e e r e e e e e e e 4 r e e 4 r e r e 7 [ D.Q.D.N.dXdXdXdXdXdXdXdX",
"dXdXdXdXdXdXdXdXdXA.F.!.C.v e 7 e e e e e e r r e e e e e e e e e e e e e r e e e e e r r e e r 7 u v C.!.D.D.dXdXdXdXdXdXdXdXdX",
"dXdXdXdXdXdXdXdXdXA.F.H.^.X.d u e e r e e e e e e e e e e e e e e e e r e e e e e e e e e e e e u s X.!.G.V.F.dXdXdXdXdXdXdXdXdX",
"dXdXdXdXdXdXdXdXdXdXF.B.H.Q.X.d 7 u e e r e e e e e e e r e e e e e e e e e e r e e e e e e 7 7 c X.K.F.V.V.dXdXdXdXdXdXdXdXdXdX",
"dXdXdXdXdXdXdXdXdXdXdXD.D.H.H. .v u 7 e e e e e e e e e e e r e e e e e e e e e e e e r e 7 e c  .S.J.Z.Z.dXdXdXdXdXdXdXdXdXdXdX",
"dXdXdXdXdXdXdXdXdXdXdXdXV.V.G.G. .c 9 e e e e e e e e e e e e e e e e e e e e e e e e e 7 7 d O.S.Z.2.2.dXdXdXdXdXdXdXdXdXdXdXdX",
"dXdXdXdXdXdXdXdXdXdXdXdXdXZ.A.J.J.1.N u 7 e e e e e e e e e e e e e e e e e e e e e 7 w e h #.3.<.%.%.dXdXdXdXdXdXdXdXdXdXdXdXdX",
"dXdXdXdXdXdXdXdXdXdXdXdXdXZ.4.4.Z.4.;.B s e w 7 7 e e r r e r e e e e e r e e e 7 7 e k C $.,.7.6.-.$.dXdXdXdXdXdXdXdXdXdXdXdXdX",
"dXdXdXdXdXdXdXdXdXdXdXdXdXdX>.>.:.,.0.>.V z y t 7 e e 7 u e e 7 e e e e 7 e 7 7 t s A +.9.r.8.7.7.8.dXdXdXdXdXdXdXdXdXdXdXdXdXdX",
"dXdXdXdXdXdXdXdXdXdXdXdXdXdXdXdX&.&.&.8.7.&.o.M y 7 w 7 7 7 7 7 7 u w 7 7 w u y m O.,.L.L.q.e.e.dXdXdXdXdXdXdXdXdXdXdXdXdXdXdXdX",
"dXdXdXdXdXdXdXdXdXdXdXdXdXdXdXdXdX9.8.8.q.q.q.7.@.{ m Z d s r t u y s d Z B { <.3.L.U.U.I.L.P.dXdXdXdXdXdXdXdXdXdXdXdXdXdXdXdXdX",
"dXdXdXdXdXdXdXdXdXdXdXdXdXdXdXdXdXdXe.e.L.P.U.U.P.w.,.#.@.o.) V V ) o.@.*.3.L.T.W.E.R.U.I.U.dXdXdXdXdXdXdXdXdXdXdXdXdXdXdXdXdXdX",
"dXdXdXdXdXdXdXdXdXdXdXdXdXdXdXdXdXdXdXdXP.T.U.U.T.R.W.R.T.U.I.I.L.I.U.R.W.W.W.R.T.U.U.U.dXdXdXdXdXdXdXdXdXdXdXdXdXdXdXdXdXdXdXdX",
"dXdXdXdXdXdXdXdXdXdXdXdXdXdXdXdXdXdXdXdXdXdXU.U.U.T.T.R.R.R.R.E.W.E.E.E.E.E.R.T.T.R.dXdXdXdXdXdXdXdXdXdXdXdXdXdXdXdXdXdXdXdXdXdX",
"dXdXdXdXdXdXdXdXdXdXdXdXdXdXdXdXdXdXdXdXdXdXdXdXU.T.T.T.E.R.R.E.W.W.R.E.T.T.Y.T.dXdXdXdXdXdXdXdXdXdXdXdXdXdXdXdXdXdXdXdXdXdXdXdX",
"dXdXdXdXdXdXdXdXdXdXdXdXdXdXdXdXdXdXdXdXdXdXdXdXdXdXE.T.T.R.T.R.R.W.R.R.T.Y.dXdXdXdXdXdXdXdXdXdXdXdXdXdXdXdXdXdXdXdXdXdXdXdXdXdX"
};
