/* XPM */
static char *bitcoin32[] = {
/* columns rows colors chars-per-pixel */
"32 32 172 2 ",
"   c #510000",
".  c #590000",
"X  c #640000",
"o  c #6D0000",
"O  c #710000",
"+  c #7C0000",
"@  c #7A000D",
"#  c #750409",
"$  c #6C0717",
"%  c #720213",
"&  c #7D0313",
"*  c #77001B",
"=  c #7D001A",
"-  c #770B1A",
";  c #7D0A19",
":  c #780C12",
">  c #7B171B",
",  c #7D272E",
"<  c #810000",
"1  c #8D0106",
"2  c #8F0109",
"3  c #920003",
"4  c #92000B",
"5  c #9D000E",
"6  c #850117",
"7  c #8D0115",
"8  c #810817",
"9  c #830019",
"0  c #8A0018",
"q  c #810A1A",
"w  c #8F0F1F",
"e  c #960014",
"r  c #9A0013",
"t  c #940A13",
"y  c #940618",
"u  c #990019",
"i  c #920D1E",
"p  c #980A1B",
"a  c #84101E",
"s  c #951412",
"d  c #941B15",
"f  c #981A14",
"g  c #BD030E",
"h  c #A90B1B",
"j  c #A31E11",
"k  c #A8101E",
"l  c #902316",
"z  c #9F3310",
"x  c #A33A0E",
"c  c #BF3E08",
"v  c #A42111",
"b  c #A32A11",
"n  c #A13110",
"m  c #A13911",
"M  c #850023",
"N  c #851322",
"B  c #8D1625",
"V  c #8D1827",
"C  c #851B2A",
"Z  c #8B1B29",
"A  c #931020",
"S  c #901827",
"D  c #911A29",
"F  c #BD1A2D",
"G  c #80292F",
"H  c #8E212A",
"J  c #93282D",
"K  c #99312F",
"L  c #942530",
"P  c #8D3C3C",
"I  c #9C3636",
"U  c #A9353C",
"Y  c #C3040E",
"T  c #C11B2D",
"R  c #EB2C36",
"E  c #F12832",
"W  c #BB4409",
"Q  c #BD490A",
"!  c #B85408",
"~  c #B9670A",
"^  c #C34209",
"/  c #C44B0A",
"(  c #C94D0A",
")  c #C95409",
"_  c #CB5A09",
"`  c #E55700",
"'  c #D66700",
"]  c #DE6200",
"[  c #D66D07",
"{  c #DF6F00",
"}  c #D77007",
"|  c #DD7400",
" . c #E76600",
".. c #EA6400",
"X. c #E26E01",
"o. c #E96D00",
"O. c #E67C01",
"+. c #EC7A00",
"@. c #F07D00",
"#. c #914445",
"$. c #A84046",
"%. c #B34649",
"&. c #B44B53",
"*. c #B15E5E",
"=. c #A3696A",
"-. c #B86769",
";. c #B46261",
":. c #A76F70",
">. c #AC6E70",
",. c #A47375",
"<. c #AB7375",
"1. c #C2575A",
"2. c #C55D60",
"3. c #C16368",
"4. c #DA8500",
"5. c #D68901",
"6. c #DD8E00",
"7. c #C89F03",
"8. c #D69500",
"9. c #D19C01",
"0. c #E78002",
"q. c #ED8602",
"w. c #E38900",
"e. c #ED8903",
"r. c #F28300",
"t. c #F48C00",
"y. c #FB9400",
"u. c #FD9C00",
"i. c #F29300",
"p. c #C7A402",
"a. c #CBA602",
"s. c #CCA901",
"d. c #D4A400",
"f. c #D8A600",
"g. c #D1AC00",
"h. c #D9AC00",
"j. c #FFA300",
"k. c #FFAC00",
"l. c #FFB300",
"z. c #B0888A",
"x. c #BC888D",
"c. c #AE8C93",
"v. c #B48E93",
"b. c #AD9292",
"n. c #BEBCBB",
"m. c #C8878E",
"M. c #C38D90",
"N. c #CD9F9F",
"B. c #C7ADAF",
"V. c #CDA4A3",
"C. c #C2ADB0",
"Z. c #C4B3B3",
"A. c #C6BFBE",
"S. c #D6BFC1",
"D. c #C7C2C0",
"F. c #CFC9C9",
"G. c #C9C1C1",
"H. c #D1C7C7",
"J. c #CFD6D4",
"K. c #D4D4D4",
"L. c #D5D7DA",
"P. c #D4D9D8",
"I. c #E0C7C8",
"U. c #E1C1C2",
"Y. c #EAD4D2",
"T. c #EBDCDB",
"R. c #F4E7E6",
"E. c #E1F0ED",
"W. c #E2F5F3",
"Q. c white",
"!. c #F8F3F1",
"~. c None",
/* pixels */
"~.~.~.~.~.~.~.~.~.~.~.~.k.l.l.l.l.l.l.k.~.~.~.~.~.~.~.~.~.~.~.~.",
"~.~.~.~.~.~.~.~.~.j.k.k.q.[ _ ( ( _ } e.j.j.y.~.~.~.~.~.~.~.~.~.",
"~.~.~.~.~.~.~.i.u.t._ b 7 9 9 9 9 9 6 e b ) +.r.` ~.~.~.~.~.~.~.",
"~.~.~.~.~.~. .@./ s = 6 e e e e e e e 7 9 9 t W 6.4.~.~.~.~.~.~.",
"~.~.~.~.~.6.4.v = 7 r r r e r e e e e r 5 e e 6 x a.g.~.~.~.~.~.",
"~.~.~.~.g.a.l 9 e e e e e y e r e e e e y y y y 0 d p.d.~.~.~.~.",
"~.~.~.4.s.f * - ; ; ; ; ; ; - 6 r 5 y Z Z B Z B Z M s d.{ ~.~.~.",
"~.~. .6.n 0 r ; ; ; ; ; ; ; ; - e r B Z B B B B Z A 6 b O.@.~.~.",
"~.~.r.W 9 e r e - q ; q ; 8 ; ; = A V B B B B B Z w r 9 c y.~.~.",
"~.y.+.e 7 r e r 8 ; q ; ; q q 8 ; N D B B B B B Z A r 7 e r.y.~.",
"~.j./ 9 e e e r r q ; ; ; ; ; q ; & B D V B B B Z i e r 9 ( k.~.",
"~.u.v 9 r e e e r < X o o & q q # o o B C Z D N + 3 e e 6 j j.~.",
"k.q.7 e e e e e e %.>.,.<.: @ o > <.,.H k Z N 6 -.U 2 e e 7 q.j.",
"l.[ 6 e e e r 4 4 R.R.B.H.D.X #.W.F.G., g T X M.Q.K 1 e e 9 [ k.",
"l.) 9 e e e e 4 t T.K .   K.,.P.=.X O % ; g %.Q.*.< u e e 9 ) k.",
"l./ 9 e e e e 4 3 Y.H.V.S.b.z.Z.. 6 ; q $ 2 E 1.+ r e e e 9 / l.",
"l./ 9 e e e e 4 3 Y.H.N.B.b.v.Z.X @ 6 ; $ 7 R 2.< r e e e 6 / k.",
"l.) 6 e e e e 4 t Y.L     L.,.K.,.X O % a Y $.Q.;.+ u e e 9 ) k.",
"l.} 6 e r e e 4 3 !.!.n.K.A.X P E.K.K., g F X M.Q.I 1 e e 9 [ k.",
"k.e.7 e e e r r 4 3.x.v.<.# & O : <.c.L h B a @ m.&.1 e e 7 O.j.",
"~.j.v 6 e e e e h + X o o @ q q @ o O B C B D B + 3 e e 9 j y.~.",
"~.l.) = e e e r e - ; ; ; q q ; ; - B S B B B S Z i r r 9 ^ j.~.",
"~.j.t.t 7 e e r ; ; q ; 8 ; 8 8 ; N D B B Z B B Z w e 7 y X.t.~.",
"~.~.u.^ = e r 7 ; ; 8 ; ; ; q - 6 p Z B B B B B Z w 5 9 ! +.~.~.",
"~.~.t.+.v 0 e - ; ; ; ; ; ; - ; e 5 B Z V B V B Z i 7 z f.] ~.~.",
"~.~.~.o.5.f * ; 8 q q q 8 ; ; 7 r 4 e B B B B B B M s s.8.~.~.~.",
"~.~.~.~.6.s.d 7 e r e e r r e r e e r e e r e e 6 d p.s.~.~.~.~.",
"~.~.~.~.~.s.s.z 9 e r e e e e e e e e e r e 7 9 m f.f.~.~.~.~.~.",
"~.~.~.~.~.~.9.h.~ s 9 0 e e e e e e e e 7 9 t Q w.| ~.~.~.~.~.~.",
"~.~.~.~.~.~.~.' O.X.W j 7 6 9 9 0 9 9 e b / +.r...~.~.~.~.~.~.~.",
"~.~.~.~.~.~.~.~.~.r.y.y.O.[ ) / / ) } e.u.j.y.~.~.~.~.~.~.~.~.~.",
"~.~.~.~.~.~.~.~.~.~.~.~.j.k.k.k.l.k.k.u.~.~.~.~.~.~.~.~.~.~.~.~."
};
