/* XPM */
static char *bitcoin16[] = {
/* columns rows colors chars-per-pixel */
"16 16 187 2 ",
"   c #740003",
".  c #750003",
"X  c #740007",
"o  c #740009",
"O  c #76010F",
"+  c #7B0010",
"@  c #7A0110",
"#  c #790614",
"$  c #780715",
"%  c #720812",
"&  c #730914",
"*  c #7B0817",
"=  c #7A0917",
"-  c #75001D",
";  c #7B071A",
":  c #7A0818",
">  c #7A0918",
",  c #78091B",
"<  c #7D0918",
"1  c #7E0918",
"2  c #7D0A19",
"3  c #7F0A19",
"4  c #7E0027",
"5  c #850000",
"6  c #880005",
"7  c #890005",
"8  c #890007",
"9  c #8C0005",
"0  c #8C0006",
"q  c #8C0007",
"w  c #88000A",
"e  c #8D000F",
"r  c #930009",
"t  c #93000A",
"y  c #910609",
"u  c #92070C",
"i  c #840017",
"p  c #860017",
"a  c #870017",
"s  c #800615",
"d  c #810716",
"f  c #840717",
"g  c #890016",
"h  c #890017",
"j  c #8B0016",
"k  c #8A0017",
"l  c #8E0016",
"z  c #8D0515",
"x  c #810817",
"c  c #810019",
"v  c #830018",
"b  c #830019",
"n  c #82001B",
"m  c #860018",
"M  c #860019",
"N  c #870019",
"B  c #86001B",
"V  c #880018",
"C  c #8B0018",
"Z  c #8C0018",
"A  c #800918",
"S  c #820918",
"D  c #87091A",
"F  c #840B1B",
"G  c #960013",
"H  c #970013",
"J  c #900014",
"K  c #910014",
"L  c #900015",
"P  c #910015",
"I  c #920014",
"U  c #920015",
"Y  c #930015",
"T  c #920016",
"R  c #940015",
"E  c #950015",
"W  c #960014",
"Q  c #970114",
"!  c #990012",
"~  c #9E0015",
"^  c #920E1F",
"/  c #A71E0F",
"(  c #A51010",
")  c #A61511",
"_  c #A51611",
"`  c #A61811",
"'  c #A61911",
"]  c #A61C10",
"[  c #AB220D",
"{  c #A6290C",
"}  c #A5280F",
"|  c #A6370D",
" . c #A7360F",
".. c #A5380C",
"X. c #A92211",
"o. c #A33D10",
"O. c #800026",
"+. c #8B0D21",
"@. c #8C0F22",
"#. c #8B1524",
"$. c #8B1426",
"%. c #8D1726",
"&. c #8E1727",
"*. c #8C1826",
"=. c #8C1927",
"-. c #8F1827",
";. c #8A1628",
":. c #8B1A28",
">. c #8B1B28",
",. c #8F1928",
"<. c #8F1A2B",
"1. c #8F1B2C",
"2. c #921121",
"3. c #8A3339",
"4. c #8C363D",
"5. c #A1430F",
"6. c #C74706",
"7. c #C54A07",
"8. c #CB4B07",
"9. c #CD4B05",
"0. c #CD4F06",
"q. c #CF5006",
"w. c #D25907",
"e. c #D45D07",
"r. c #DD6A06",
"t. c #DD6C05",
"y. c #DC6D06",
"u. c #DF6E06",
"i. c #DE6F06",
"p. c #E07006",
"a. c #E17306",
"s. c #E07406",
"d. c #E77D00",
"f. c #E87D03",
"g. c #EC7E03",
"h. c #8D3B45",
"j. c #8E3F49",
"k. c #923A45",
"l. c #933C47",
"z. c #AA3E4C",
"x. c #AB3E4C",
"c. c #9A4B4F",
"v. c #B84A57",
"b. c #A05459",
"n. c #BB525E",
"m. c #AF6870",
"M. c #AE6A73",
"N. c #B56C74",
"B. c #C06D75",
"V. c #DF6F77",
"C. c #DD7078",
"Z. c #DD8C00",
"A. c #D49400",
"S. c #D59B00",
"D. c #E78003",
"F. c #E38700",
"G. c #E58500",
"H. c #E98103",
"J. c #EC8003",
"K. c #ED8600",
"L. c #EC8503",
"P. c #EE8403",
"I. c #ED8803",
"U. c #F78000",
"Y. c #F38D00",
"T. c #FA9600",
"R. c #FC9D00",
"E. c #FF9F00",
"W. c #D4A000",
"Q. c #D1A500",
"!. c #DAA000",
"~. c #FEA000",
"^. c #FFA100",
"/. c #FFA300",
"(. c #FFA400",
"). c #C47981",
"_. c #AB8488",
"`. c #AF8589",
"'. c #AC878B",
"]. c #B18588",
"[. c #BB8188",
"{. c #BAA7A7",
"}. c #CB838A",
"|. c #CC8189",
" X c #CF9BA1",
".X c #D29CA2",
"XX c None",
/* pixels */
"XXXXXXXXXX(.I.s.s.L.^.XXXXXXXXXX",
"XXXXXXU.e.X.L l g L ] 9.F.XXXXXX",
"XXXXS.} n n l W ! L m n o.W.XXXX",
"XXG.| - : < < x W 2.,.;.4 { L.XX",
"XX8.m W < : 1 * F ,.%.*.#.i q.XX",
"^.) V ~ w O @   o #.,.s e l ) ^.",
"J.L L q v.N.h.4._.c.u N.N.6 l g.",
"u.g W 5 }..X].{.k.% r V.x.0 g u.",
"p.g W 5 }. X].{.l.& t C.x.0 g r.",
"P.L L q n.[.j.3.'.b.y M.).0 l d.",
"(.` m ~ w # + . o *.1.x z Z ( R.",
"XXw.m T : # < : D *.*.,.+.i 7.XX",
"XXY.[ - ; S < f ! ^ ,.#.O...Z.XX",
"XXXXA.5.m V L Q W L m m  .Q.XXXX",
"XXXXXX!.7.` L g g L ] 9.f.XXXXXX",
"XXXXXXXXXXT.H.u.p.H.R.XXXXXXXXXX"
};
